PathFileType	4	(X/Y/Z)	C:\Users\WrightLab\Desktop\Jo\P1.2Trial33.trc
DataRate	CameraRate	NumFrames	NumMarkers	Units	OrigDataRate	OrigDataStartFrame	OrigNumFrames
100.00	100.00	       11	19	mm	100.00	384	       766
Frame#	Time	Headset_Front			Headset_Back			Headset_Left			Headset_Right			Left_Shoulder			Right_Shoulder			Sternum			C7			Left Elbow			Right Elbow			Left Wrist			Right Wrist			Left ASIS			Right ASIS			S2			Left Knee			Right Knee			Left Ankle			Right Ankle			
		X1	Y1	Z1	X2	Y2	Z2	X3	Y3	Z3	X4	Y4	Z4	X5	Y5	Z5	X6	Y6	Z6	X7	Y7	Z7	X8	Y8	Z8	X9	Y9	Z9	X10	Y10	Z10	X11	Y11	Z11	X12	Y12	Z12	X13	Y13	Z13	X14	Y14	Z14	X15	Y15	Z15	X16	Y16	Z16	X17	Y17	Z17	X18	Y18	Z18	X19	Y19	Z19	

384	3.830	-347.20087	1285.82495	-88.37932	-483.84116	1509.94580	72.11461	-523.88861	1396.47107	-52.30829	-308.28894	1371.45789	31.47379	-628.33978	1217.71533	-30.38455	-310.91562	1263.67896	228.97148	-414.92780	1147.18848	36.59799	-550.20074	1320.79211	190.04442	-597.90985	939.20935	-92.38332	-278.35495	1034.62537	363.66714	-404.57007	844.69928	-215.72350	-174.51479	778.26031	314.44354	-582.24622	853.60358	17.70176	-346.24146	837.82050	161.40892	-612.85461	938.48798	309.91074	-691.27209	432.93805	51.80038	-357.00906	432.79947	146.16890	-869.64813	130.81316	269.70694	-356.30771	84.96706	163.65761	
385	3.840	-344.05347	1284.41724	-90.24306	-479.56302	1509.84729	68.19685	-519.55261	1397.26660	-56.51821	-303.91196	1370.49451	27.81136	-624.99957	1218.06982	-33.07740	-305.49420	1262.57629	228.97133	-412.05618	1146.90039	33.63223	-546.01392	1321.30957	186.57523	-594.76337	938.94958	-94.61569	-272.65353	1034.39246	359.55322	-401.12451	845.57587	-218.97424	-168.78053	779.09845	307.32361	-579.15057	853.66492	14.73539	-342.93542	837.23303	158.63399	-609.22400	939.19110	307.05600	-688.75732	433.52084	50.56256	-355.99310	432.51242	145.22273	-869.64813	130.81316	269.70694	-357.43286	85.63358	163.13512	
386	3.850	-339.50708	1283.46191	-95.35789	-474.88361	1509.48804	63.98084	-515.47064	1395.96130	-59.61886	-300.08044	1369.14795	24.47050	-621.44452	1217.98669	-35.94674	-302.49966	1260.53955	217.86784	-408.59454	1145.80237	30.29641	-541.64075	1321.57690	183.33891	-591.56506	939.19574	-97.53316	-267.35944	1034.46875	355.19376	-397.50293	846.17761	-222.44112	-162.67514	779.45593	299.47296	-576.68530	853.92493	12.82550	-339.75519	837.48431	156.04739	-606.01447	939.89673	304.04434	-686.65936	433.10873	50.70331	-355.20917	432.29694	144.95020	-869.64813	130.81316	269.70694	-357.63849	85.28806	162.73129	
387	3.860	-336.17160	1282.12476	-97.55470	-470.64667	1509.11096	59.94249	-511.74350	1395.59863	-63.72789	-297.70410	1368.20569	20.60339	-618.29736	1218.35315	-38.63216	-295.46674	1263.48560	217.66388	-405.78604	1145.92554	26.78612	-538.08844	1322.06787	180.48457	-588.47900	939.24078	-99.37484	-262.40720	1034.49805	350.35495	-394.19885	846.46820	-224.61165	-157.08562	780.35327	291.41473	-573.64191	853.50671	10.55922	-336.41199	837.20703	153.66304	-603.19232	940.76825	301.22552	-684.47729	433.53091	49.38074	-354.60632	431.95505	144.63382	-869.14563	131.73506	270.25491	-357.73218	84.78756	162.52037	
388	3.870	-332.16116	1281.39307	-100.75069	-466.57233	1508.56006	56.23636	-507.62820	1395.06482	-67.51241	-294.10214	1367.08472	17.27593	-615.04962	1218.54102	-41.08645	-293.82339	1261.88062	213.33258	-402.19226	1145.26379	24.21690	-535.08276	1323.32788	176.33264	-585.34015	939.94867	-102.40176	-257.62463	1034.17993	345.94705	-390.84924	847.55505	-227.76958	-152.07507	780.85229	284.11139	-571.03351	853.98267	7.51884	-333.87604	836.45203	151.49667	-600.06561	941.45087	298.63089	-682.61890	434.34021	48.33346	-353.35522	431.03278	142.78615	-866.99060	132.17834	268.06250	-357.81003	84.28947	162.30551	
389	3.880	-328.47220	1280.15051	-105.11572	-462.63669	1508.41833	52.59280	-504.88895	1393.70703	-70.79739	-290.32352	1366.04590	13.83170	-611.91205	1218.77820	-43.77247	-290.05588	1261.98511	212.99149	-399.33588	1145.07593	21.17449	-530.65063	1322.82263	174.55188	-582.40814	940.24951	-105.19161	-253.45351	1033.76331	342.00592	-387.83072	848.00171	-230.59990	-147.37431	781.30237	276.70105	-569.15204	853.99438	6.33998	-330.65881	836.26819	148.97951	-597.68793	942.31555	295.98233	-680.60101	434.63443	47.71460	-352.37863	431.28189	140.36064	-865.86401	133.04417	268.31146	-357.90378	84.10132	162.24974	
390	3.890	-325.19583	1278.95300	-106.62666	-459.06509	1507.87671	48.62423	-500.16849	1393.31189	-73.78669	-287.06927	1365.60254	11.04685	-608.84180	1219.01392	-46.66659	-287.44308	1260.52576	203.13736	-396.83878	1144.76123	18.33746	-526.97955	1322.85010	171.61690	-579.83716	940.42352	-107.84298	-249.98093	1032.80652	337.01218	-385.11920	848.91461	-233.33998	-142.57021	782.24982	268.54099	-566.95001	854.25702	3.52274	-328.25858	835.55139	147.14003	-595.01703	943.42999	293.85565	-678.66052	433.78586	48.18181	-351.23926	431.09525	139.49831	-863.87555	134.06581	267.07996	-359.38513	83.00576	163.90532	
391	3.900	-321.83801	1277.89734	-109.50810	-454.84061	1507.66956	45.29764	-496.39694	1393.09473	-76.31822	-283.65997	1364.03821	8.00341	-605.57458	1219.29797	-48.87879	-283.64920	1261.58496	204.89935	-394.00409	1144.39490	15.43207	-522.94666	1322.97644	168.56036	-577.21350	940.74493	-110.39090	-245.28729	1032.87341	334.07901	-382.38095	850.08942	-236.87297	-137.95863	782.44525	261.74725	-565.21381	853.77576	1.66087	-324.82202	835.17987	144.74608	-592.62341	943.78455	291.77264	-676.35614	434.31653	48.14985	-349.98856	430.76028	138.85266	-862.18225	135.31129	265.94379	-357.45633	83.66437	161.09492	
392	3.910	-318.90891	1275.66321	-112.92062	-451.31454	1507.75000	41.14645	-493.43262	1391.97107	-80.28126	-278.01349	1364.04626	5.34573	-603.11066	1219.72815	-51.70546	-280.99115	1259.61609	197.09367	-391.48117	1143.93127	13.43442	-520.52942	1323.51379	161.02711	-574.71936	941.51184	-113.39067	-241.53769	1032.58203	330.35727	-379.99649	850.28278	-238.93735	-134.18645	782.84509	254.31905	-562.92310	854.64758	-1.02682	-321.91312	835.01758	143.07373	-589.92767	944.10291	289.80597	-675.02637	434.97629	47.75174	-348.54788	429.96268	136.35883	-860.41431	137.34543	264.58554	-357.48862	83.50924	161.03487	
393	3.920	-315.29440	1274.99329	-115.20641	-447.92117	1506.60205	38.30464	-489.83676	1391.04309	-83.85147	-277.23383	1362.07483	2.03087	-600.45233	1219.72461	-53.71259	-277.65350	1260.27905	198.58054	-388.96179	1143.40027	10.46905	-516.88177	1323.75623	163.74004	-572.55939	941.84625	-116.08652	-238.28571	1031.57874	326.37225	-377.77954	850.99426	-240.95903	-130.35356	782.86890	247.52348	-561.67340	854.13287	-2.72323	-318.72653	834.62219	140.35594	-587.19153	945.09991	288.02911	-673.32300	435.18506	47.17561	-347.91153	429.66626	135.65007	-861.06927	137.79895	266.06497	-359.26761	82.48642	163.69595	
394	3.930	-312.93155	1273.89648	-117.35425	-445.04193	1506.27051	34.52935	-486.76007	1390.64343	-86.71358	-273.98749	1361.97009	-0.53533	-597.95398	1220.27966	-56.23008	-273.83746	1259.92200	197.43309	-386.16486	1142.98401	8.59476	-514.12244	1323.75269	161.32765	-570.47913	942.12976	-117.56000	-234.37024	1031.09509	322.37979	-375.38916	851.70959	-243.27168	-126.95367	784.10327	240.75934	-559.55243	853.96545	-4.77994	-315.94482	834.48700	138.35732	-585.26514	945.11816	286.28128	-671.90839	435.65463	46.05125	-347.30621	429.21417	135.34323	-859.50214	139.60301	264.86127	-359.17749	82.30727	163.58022	
